{"title":"Priest.2011.R5.V2.LINE.XviD.Feel-Free","uid":6446973,"size":989869598,"categoryP":"video","categoryS":"movies","magnet":"?xt=urn:btih:bd3d567b7f9340e668d5a30a3b8e868c71e39997&amp;dn=Priest.2011.R5.V2.LINE.XviD.Feel-Free&amp;tr=udp%3A%2F%2Ftracker.openbittorrent.com%3A80&amp;tr=udp%3A%2F%2Fopen.demonii.com%3A1337&amp;tr=udp%3A%2F%2Ftracker.coppersurfer.tk%3A6969&amp;tr=udp%3A%2F%2Fexodus.desync.com%3A6969","seeders":0,"leechers":1,"uploader":"qwersd","files":-1,"time":1307300037,"description":"Genre:Action | Horror | Sci-Fi\nLanguage:English\nIMDb: http://www.imdb.com/title/tt0822847/\nSource:DVD5.ELEKTRI4KA/IMAGINE Thanks!\nSubtitles:Romana\n\nFormat : MPEG-4\nFormat profile : Base Media\nCodec ID : isom\nFile size : 941 MiB\nDuration : 1h 23mn\nOverall bit rate : 1 571 Kbps\n\nVideo\nID : 1\nFormat : AVC\nFormat/Info : Advanced Video Codec\nFormat profile : &lt;a class=&quot;__cf_email__&quot; href=&quot;/cdn-cgi/l/email-protection&quot; data-cfemail=&quot;1159787679515d253f20&quot;&gt;[email&amp;#160;protected]&lt;/a&gt;&lt;script cf-hash='f9e31' type=&quot;text/javascript&quot;&gt;\n/* &lt;![CDATA[ */!function(){try{var t=&quot;currentScript&quot;in document?document.currentScript:function(){for(var t=document.getElementsByTagName(&quot;script&quot;),e=t.length;e--;)if(t[e].getAttribute(&quot;cf-hash&quot;))return t[e]}();if(t&amp;&amp;t.previousSibling){var e,r,n,i,c=t.previousSibling,a=c.getAttribute(&quot;data-cfemail&quot;);if(a){for(e=&quot;&quot;,r=parseInt(a.substr(0,2),16),n=2;a.length-n;n+=2)i=parseInt(a.substr(n,2),16)^r,e+=String.fromCharCode(i);e=document.createTextNode(e),c.parentNode.replaceChild(e,c)}}}catch(u){}}();/* ]]&gt; */&lt;/script&gt;\nFormat settings, CABAC : Yes\nFormat settings, ReFrames : 3 frames\nCodec ID : avc1\nCodec ID/Info : Advanced Video Coding\nDuration : 1h 23mn\nBit rate mode : Variable\nBit rate : 1 342 Kbps\nMaximum bit rate : 6 949 Kbps\nWidth : 720 pixels\nHeight : 304 pixels\nDisplay aspect ratio : 2.35:1\nFrame rate mode : Constant\nFrame rate : 25.000 fps\nColor space : YUV\nChroma subsampling : 4:2:0\nBit depth : 8 bits\nScan type : Progressive\nBits/(Pixel*Frame) : 0.245\nStream size : 805 MiB (85%)\nWriting library : x264\n\nAudio\nID : 2\nFormat : AAC\nFormat/Info : Advanced Audio Codec\nFormat version : Version 4\nFormat profile : LC\nFormat settings, SBR : No\nCodec ID : 40\nDuration : 1h 23mn\nBit rate mode : Variable\nBit rate : 224 Kbps\nMaximum bit rate : 250 Kbps\nChannel(s) : 2 channels\nChannel positions : Front: L R\nSampling rate : 48.0 KHz\nStream size : 134 MiB (14%)\n\n\nPlot:\nA priest disobeys church law to track down the vampires who kidnapped his niece.\n\n\nScreens:\n &lt;a href=&quot;\nhttp://www.pix2links.com/images/49197469177595509428.png&quot; rel=&quot;nofollow&quot; target=&quot;_NEW&quot;&gt;\nhttp://www.pix2links.com/images/49197469177595509428.png&lt;/a&gt; &lt;a href=&quot;\nhttp://www.pix2links.com/images/14001165553248676666.png&quot; rel=&quot;nofollow&quot; target=&quot;_NEW&quot;&gt;\nhttp://www.pix2links.com/images/14001165553248676666.png&lt;/a&gt; &lt;a href=&quot;\nhttp://www.pix2links.com/images/78318214954261937892.png&quot; rel=&quot;nofollow&quot; target=&quot;_NEW&quot;&gt;\nhttp://www.pix2links.com/images/78318214954261937892.png&lt;/a&gt; &lt;a href=&quot;\nhttp://www.pix2links.com/images/65200121246810479307.png&quot; rel=&quot;nofollow&quot; target=&quot;_NEW&quot;&gt;\nhttp://www.pix2links.com/images/65200121246810479307.png&lt;/a&gt; &lt;a href=&quot;\nhttp://www.pix2links.com/images/42963301360433530103.png&quot; rel=&quot;nofollow&quot; target=&quot;_NEW&quot;&gt;\nhttp://www.pix2links.com/images/42963301360433530103.png&lt;/a&gt; &lt;a href=&quot;\nhttp://www.pix2links.com/images/08563916954822852128.png&quot; rel=&quot;nofollow&quot; target=&quot;_NEW&quot;&gt;\nhttp://www.pix2links.com/images/08563916954822852128.png&lt;/a&gt; &lt;a href=&quot;\nhttp://www.pix2links.com/images/51859586600547286074.png&quot; rel=&quot;nofollow&quot; target=&quot;_NEW&quot;&gt;\nhttp://www.pix2links.com/images/51859586600547286074.png&lt;/a&gt; &lt;a href=&quot;\nhttp://www.pix2links.com/images/65180269188565503229.png&quot; rel=&quot;nofollow&quot; target=&quot;_NEW&quot;&gt;\nhttp://www.pix2links.com/images/65180269188565503229.png&lt;/a&gt;\n\nGreets:\n\nINK,CRYS,IMAGINE,LKRG,FXG,3Li,FLAWL3SS,TA,iLLUSiON,ViSiON,DTRG SAFCuk009,LU,TheFalcon007,MYSTiC,PrisM,Noir,WBZ,LAP,Rx,Kingdom,SAFCuk009+Fabreezy,HDLiTE,TWiZTED,ExtraTorrentRG.ELEKTRI4KA,MAGNAT,CM8\nAnd to all the other p2p grps past and present.","torrent":{"xt":"urn:btih:bd3d567b7f9340e668d5a30a3b8e868c71e39997","amp;dn":"Priest.2011.R5.V2.LINE.XviD.Feel-Free","amp;tr":["udp%3A%2F%2Ftracker.openbittorrent.com%3A80","udp%3A%2F%2Fopen.demonii.com%3A1337","udp%3A%2F%2Ftracker.coppersurfer.tk%3A6969","udp%3A%2F%2Fexodus.desync.com%3A6969"],"infoHash":"bd3d567b7f9340e668d5a30a3b8e868c71e39997","infoHashBuffer":{"type":"Buffer","data":[189,61,86,123,127,147,64,230,104,213,163,10,59,142,134,140,113,227,153,151]},"announce":[],"urlList":[]}}